<svg width="124" height="124" viewBox="0 0 124 124" fill="none" xmlns="http://www.w3.org/2000/svg">
<path d="M102.736 62.7992C106.078 61.7094 108.5 58.561 108.5 54.8555C108.5 50.2539 104.77 46.5 100.145 46.5H75.2961C75.7805 40.4453 77.718 33.5188 75.5625 25.357C73.7461 18.4789 66.0203 13.3203 62.8719 16.4445C61.6609 17.6313 62.0242 20.1258 62.0242 24.6305C62.0242 34.9961 57.7133 45.4828 52.3852 50.9563C50.1086 53.3055 46.282 54.1047 42.6492 54.25V50.375H15.5V108.5H42.625V100.75C47.6141 100.629 55.3641 102.009 60.9828 102.348C73.5766 103.099 85.6859 101.767 91.5711 100.387C97.4563 99.0063 100.048 97.2383 100.048 92.9758C100.048 91.4258 99.5875 89.9969 98.8125 88.786C101.67 87.6477 103.68 84.8625 103.68 81.593C103.68 79.8492 103.099 78.2508 102.13 76.943C105.013 75.8289 107.071 73.0195 107.071 69.7258C107.047 66.6985 105.279 64.0586 102.736 62.7992V62.7992ZM27.125 100.677C24.9937 100.677 23.25 98.9578 23.25 96.8024C23.25 94.6711 24.9937 92.9274 27.125 92.9274C29.2563 92.9274 31 94.6469 31 96.8024C31 98.9336 29.2563 100.677 27.125 100.677Z" fill="#030303"/>
</svg>
