<svg width="24" height="24" viewBox="0 0 24 24" fill="none" xmlns="http://www.w3.org/2000/svg">
<g clip-path="url(#clip0_111_118)">
<path d="M24 4.55671C23.1174 4.94778 22.1693 5.21202 21.1725 5.33146C22.1894 4.72266 22.9694 3.75653 23.3372 2.60653C22.386 3.17099 21.3321 3.58108 20.2107 3.80093C19.3122 2.84545 18.0333 2.24719 16.6169 2.24719C13.8983 2.24719 11.6935 4.45206 11.6935 7.17275C11.6936 7.5498 11.7362 7.92564 11.8203 8.29319C7.72661 8.08703 4.10005 6.12631 1.6711 3.14773C1.24835 3.87705 1.00519 4.72266 1.00519 5.6232C1.00519 7.33125 1.87514 8.83961 3.19528 9.72222C2.4134 9.69731 1.64878 9.48604 0.965038 9.10598V9.16939C0.965038 11.555 2.66152 13.5453 4.91501 13.9977C4.49216 14.1118 4.05605 14.1694 3.61808 14.1689C3.30706 14.1692 2.99671 14.1402 2.69113 14.0823C3.31792 16.0377 5.13595 17.4625 7.29114 17.5006C5.60521 18.8218 3.48174 19.6092 1.17538 19.6092C0.777953 19.6092 0.385798 19.586 0 19.5405C2.17954 20.939 4.76705 21.7528 7.54691 21.7528C16.6053 21.7528 21.5573 14.2503 21.5573 7.74351C21.5573 7.53214 21.552 7.31859 21.5425 7.10721C22.5044 6.41169 23.3394 5.54604 23.9978 4.55986L24 4.55671Z" fill="#1DA1F2"/>
</g>
<defs>
<clipPath id="clip0_111_118">
<rect width="24" height="24" fill="white"/>
</clipPath>
</defs>
</svg>
